<svg xmlns="http://www.w3.org/2000/svg" viewBox="0 0 100 100" width="100" height="100"><defs></defs><g opacity="1.00"><path d="M6 4 L44 66 L28 62 L34 88 L26 90 L20 64 L6 72 Z" fill="#8a8a8a" opacity="0.42" transform="translate(11 11) scale(0.94)"/>
<path d="M6 4 L44 66 L28 62 L34 88 L26 90 L20 64 L6 72 Z" fill="#8a8a8a" opacity="0.2" transform="translate(20 20) scale(0.88)"/><path d="M6 4 L44 66 L28 62 L34 88 L26 90 L20 64 L6 72 Z" fill="#c8c8c8" stroke="#ffffff" stroke-width="2.8" stroke-linejoin="miter"/><g transform="translate(52 6)"><path d="M6 12 A10 10 0 1 1 20 22 L20 28" fill="none" stroke="#ffffff" stroke-width="6" stroke-linecap="round"/>
<circle cx="20" cy="39" r="4" fill="#ffffff"/></g></g></svg>