<svg xmlns="http://www.w3.org/2000/svg" viewBox="0 0 100 100" width="100" height="100"><defs></defs><g opacity="1.00"><path d="M6 4 L52 44 L34 48 L30 30 Z M30 30 L34 48 L48 84 L36 90 L20 52 Z M34 48 L52 44 L48 84 Z" fill="#c8c8c8" stroke="#ffffff" stroke-width="2.8" stroke-linejoin="miter"/><clipPath id="c"><path d="M6 4 L52 44 L34 48 L30 30 Z M30 30 L34 48 L48 84 L36 90 L20 52 Z M34 48 L52 44 L48 84 Z"/></clipPath>
<g clip-path="url(#c)"><path d="M-10 40 L110 10 M-10 66 L110 36 M-10 92 L110 62" stroke="#8a8a8a" stroke-width="2.4" fill="none" opacity="0.9"/></g><g transform="translate(52 6)"><circle cx="21" cy="13" r="9" fill="#c8c8c8" stroke="#ffffff" stroke-width="4"/>
<path d="M5 40 A16 14 0 0 1 37 40 Z" fill="#c8c8c8" stroke="#ffffff" stroke-width="4" stroke-linejoin="round"/></g></g></svg>