<svg xmlns="http://www.w3.org/2000/svg" viewBox="0 0 100 100" width="100" height="100"><defs><filter id="g" x="-40%" y="-40%" width="180%" height="180%"><feGaussianBlur stdDeviation="4"/></filter><linearGradient id="t" x1="0" y1="0" x2="0.85" y2="1">
<stop offset="0" stop-color="#ffffff"/><stop offset="0.55" stop-color="#c8c8c8"/><stop offset="1" stop-color="#8a8a8a"/>
</linearGradient></defs><g opacity="1.00"><g opacity="0.80" filter="url(#g)"><path d="M8 6 Q6 3 10 5 L58 50 Q62 54 56 55 L38 57 L50 84 Q52 89 46 90 L40 92 Q35 93 33 88 L22 62 L10 74 Q6 78 6 72 Z" fill="url(#t)" stroke="#ffffff" stroke-width="2.8" stroke-linejoin="round"/><path d="M8 6 Q6 3 10 5 L58 50 Q62 54 56 55 L38 57 L50 84 Q52 89 46 90 L40 92 Q35 93 33 88 L22 62 L10 74 Q6 78 6 72 Z" fill="none" stroke="#ffffff" stroke-width="2.4" stroke-linejoin="round" opacity="0.95"/><g transform="translate(52 6)"><circle cx="21" cy="13" r="9" fill="#c8c8c8" stroke="#ffffff" stroke-width="4"/>
<path d="M5 40 A16 14 0 0 1 37 40 Z" fill="#c8c8c8" stroke="#ffffff" stroke-width="4" stroke-linejoin="round"/></g></g><path d="M8 6 Q6 3 10 5 L58 50 Q62 54 56 55 L38 57 L50 84 Q52 89 46 90 L40 92 Q35 93 33 88 L22 62 L10 74 Q6 78 6 72 Z" fill="url(#t)" stroke="#ffffff" stroke-width="2.8" stroke-linejoin="round"/><path d="M8 6 Q6 3 10 5 L58 50 Q62 54 56 55 L38 57 L50 84 Q52 89 46 90 L40 92 Q35 93 33 88 L22 62 L10 74 Q6 78 6 72 Z" fill="none" stroke="#ffffff" stroke-width="2.4" stroke-linejoin="round" opacity="0.95"/><g transform="translate(52 6)"><circle cx="21" cy="13" r="9" fill="#c8c8c8" stroke="#ffffff" stroke-width="4"/>
<path d="M5 40 A16 14 0 0 1 37 40 Z" fill="#c8c8c8" stroke="#ffffff" stroke-width="4" stroke-linejoin="round"/></g></g></svg>