<svg xmlns="http://www.w3.org/2000/svg" viewBox="0 0 100 100" width="100" height="100"><defs><linearGradient id="t" x1="0" y1="0" x2="0.85" y2="1">
<stop offset="0" stop-color="#ffffff"/><stop offset="0.55" stop-color="#c8c8c8"/><stop offset="1" stop-color="#8a8a8a"/>
</linearGradient></defs><g opacity="1.00"><path d="M6 4 L52 44 L34 48 L30 30 Z M30 30 L34 48 L48 84 L36 90 L20 52 Z M34 48 L52 44 L48 84 Z" fill="url(#t)" stroke="#ffffff" stroke-width="2.8" stroke-linejoin="miter"/><path d="M6 4 L52 44 L34 48 L30 30 Z M30 30 L34 48 L48 84 L36 90 L20 52 Z M34 48 L52 44 L48 84 Z" fill="none" stroke="#ffffff" stroke-width="2.4" stroke-linejoin="round" opacity="0.95"/><g transform="translate(52 6)"><g transform="rotate(0.0 21 21)">
<circle cx="21" cy="21" r="15" fill="none" stroke="#8a8a8a" stroke-width="6"/>
<path d="M21 6 A15 15 0 0 1 36 21" fill="none" stroke="#ffffff" stroke-width="6" stroke-linecap="round"/></g></g></g></svg>